<svg height="32" width="32" xmlns="http://www.w3.org/2000/svg"><path d="M16.499 9.162c-2.735 0-5.469-.315-8.123-.937a.5.5 0 11.229-.974 34.824 34.824 0 0017.678-.498.499.499 0 11.283.959 35.663 35.663 0 01-10.067 1.45zm9.925 17.2a.504.504 0 01-.142-.021 34.804 34.804 0 00-19.566 0 .5.5 0 01-.283-.959 35.798 35.798 0 0120.133 0 .5.5 0 01-.142.98z" fill="#616161"/><path d="M15.888 30.639a.498.498 0 01-.282-.087c-4.667-3.185-7.453-8.422-7.453-14.009 0-4.527 1.781-8.788 5.017-11.998a.5.5 0 01.705.709c-3.045 3.021-4.722 7.03-4.722 11.289 0 5.256 2.623 10.185 7.018 13.183a.5.5 0 01-.283.913zm1.265 0a.5.5 0 01-.282-.913c4.395-2.998 7.018-7.927 7.018-13.183S21.266 6.358 16.871 3.36a.5.5 0 01.564-.826c4.667 3.185 7.453 8.422 7.453 14.009s-2.786 10.824-7.453 14.009a.503.503 0 01-.282.087z" fill="#616161"/><path d="M16.499 30.49a.5.5 0 01-.5-.5V3.096a.5.5 0 011 0V29.99a.5.5 0 01-.5.5z" fill="#616161"/><path d="M30.446 17.043H4.552a.5.5 0 010-1h25.895a.5.5 0 11-.001 1z" fill="#616161"/><path d="M16.499 31.043c-7.995 0-14.5-6.505-14.5-14.5 0-3.521 1.278-6.919 3.6-9.565a.5.5 0 11.752.66 13.498 13.498 0 00-3.352 8.905c0 7.444 6.056 13.5 13.5 13.5s13.5-6.056 13.5-13.5-6.056-13.5-13.5-13.5A13.348 13.348 0 008.12 5.958a.499.499 0 11-.621-.783 14.333 14.333 0 019-3.132c7.995 0 14.5 6.505 14.5 14.5s-6.505 14.5-14.5 14.5z" fill="#616161"/></svg>